<?xml version="1.0" encoding="utf-8"?>
<svg xmlns="http://www.w3.org/2000/svg" xmlns:xlink="http://www.w3.org/1999/xlink" style="margin: auto; background: none; display: block; shape-rendering: auto;" width="216px" height="216px" viewBox="0 0 100 100" preserveAspectRatio="xMidYMid">
<g transform="rotate(0 50 50)">
  <rect x="46" y="17.5" rx="4" ry="5.5" width="8" height="11" fill="#e6261f">
    <animate attributeName="opacity" values="1;0" keyTimes="0;1" dur="1.2195121951219512s" begin="-1.1086474501108645s" repeatCount="indefinite"></animate>
  </rect>
</g><g transform="rotate(32.72727272727273 50 50)">
  <rect x="46" y="17.5" rx="4" ry="5.5" width="8" height="11" fill="#eb7532">
    <animate attributeName="opacity" values="1;0" keyTimes="0;1" dur="1.2195121951219512s" begin="-0.9977827050997781s" repeatCount="indefinite"></animate>
  </rect>
</g><g transform="rotate(65.45454545454545 50 50)">
  <rect x="46" y="17.5" rx="4" ry="5.5" width="8" height="11" fill="#f7d038">
    <animate attributeName="opacity" values="1;0" keyTimes="0;1" dur="1.2195121951219512s" begin="-0.8869179600886916s" repeatCount="indefinite"></animate>
  </rect>
</g><g transform="rotate(98.18181818181819 50 50)">
  <rect x="46" y="17.5" rx="4" ry="5.5" width="8" height="11" fill="#a3e048">
    <animate attributeName="opacity" values="1;0" keyTimes="0;1" dur="1.2195121951219512s" begin="-0.7760532150776052s" repeatCount="indefinite"></animate>
  </rect>
</g><g transform="rotate(130.9090909090909 50 50)">
  <rect x="46" y="17.5" rx="4" ry="5.5" width="8" height="11" fill="#49da9a">
    <animate attributeName="opacity" values="1;0" keyTimes="0;1" dur="1.2195121951219512s" begin="-0.6651884700665187s" repeatCount="indefinite"></animate>
  </rect>
</g><g transform="rotate(163.63636363636363 50 50)">
  <rect x="46" y="17.5" rx="4" ry="5.5" width="8" height="11" fill="#34bbe6">
    <animate attributeName="opacity" values="1;0" keyTimes="0;1" dur="1.2195121951219512s" begin="-0.5543237250554323s" repeatCount="indefinite"></animate>
  </rect>
</g><g transform="rotate(196.36363636363637 50 50)">
  <rect x="46" y="17.5" rx="4" ry="5.5" width="8" height="11" fill="#4355db">
    <animate attributeName="opacity" values="1;0" keyTimes="0;1" dur="1.2195121951219512s" begin="-0.4434589800443458s" repeatCount="indefinite"></animate>
  </rect>
</g><g transform="rotate(229.0909090909091 50 50)">
  <rect x="46" y="17.5" rx="4" ry="5.5" width="8" height="11" fill="#d23be7">
    <animate attributeName="opacity" values="1;0" keyTimes="0;1" dur="1.2195121951219512s" begin="-0.33259423503325936s" repeatCount="indefinite"></animate>
  </rect>
</g><g transform="rotate(261.8181818181818 50 50)">
  <rect x="46" y="17.5" rx="4" ry="5.5" width="8" height="11" fill="#e6261f">
    <animate attributeName="opacity" values="1;0" keyTimes="0;1" dur="1.2195121951219512s" begin="-0.2217294900221729s" repeatCount="indefinite"></animate>
  </rect>
</g><g transform="rotate(294.54545454545456 50 50)">
  <rect x="46" y="17.5" rx="4" ry="5.5" width="8" height="11" fill="#eb7532">
    <animate attributeName="opacity" values="1;0" keyTimes="0;1" dur="1.2195121951219512s" begin="-0.11086474501108645s" repeatCount="indefinite"></animate>
  </rect>
</g><g transform="rotate(327.27272727272725 50 50)">
  <rect x="46" y="17.5" rx="4" ry="5.5" width="8" height="11" fill="#f7d038">
    <animate attributeName="opacity" values="1;0" keyTimes="0;1" dur="1.2195121951219512s" begin="0s" repeatCount="indefinite"></animate>
  </rect>
</g>
<!-- [ldio] generated by https://loading.io/ --></svg>